<svg width="21" height="23" viewBox="0 0 21 23" fill="none"
  xmlns="http://www.w3.org/2000/svg">
  <path fill-rule="evenodd" clip-rule="evenodd" d="M10.4337 5.21475C11.4944 4.68446 12.7814 4.39528 13.9588 4.29335L15.2823 4.17822C16.7316 4.05343 18.1823 4.12996 19.6333 4.12996H20.4293V4.92557C20.4293 8.45897 20.4293 11.9932 20.4293 15.5273V15.9333C20.4293 19.5813 17.4463 22.5643 13.7971 22.5643H0.42926V4.12996H1.22453C2.67741 4.12996 4.1225 4.03464 5.57504 4.14723L6.89822 4.2473C8.15504 4.34177 9.30569 4.64654 10.4337 5.21475V5.21475Z" fill="#4D4C4B"/>
  <path fill-rule="evenodd" clip-rule="evenodd" d="M1.22453 4.92542V14.0072V15.5272V15.9332V21.7691H7.05941H7.97641H13.7971C17.0074 21.7691 19.6333 19.1423 19.6333 15.9332V15.5272C19.6333 12.0136 19.6333 8.58648 19.6333 4.92542C18.2387 4.92542 16.7656 4.89138 15.3512 4.9713L14.0275 5.08542C12.7321 5.24288 11.4218 5.5451 10.4289 6.11806C9.35717 5.49888 8.18822 5.1909 6.83812 5.0397L5.51476 4.9393C4.0717 4.87191 2.59207 4.92542 1.22453 4.92542V4.92542Z" fill="#5FB74E"/>
  <path fill-rule="evenodd" clip-rule="evenodd" d="M2.87499 21.7692H7.05941H7.97641H13.7971C15.2193 21.7692 16.5261 21.2533 17.5406 20.401C16.3554 17.6468 13.6169 15.719 10.4286 15.719C6.73433 15.719 3.64554 18.3068 2.87499 21.7692Z" fill="#89C45F"/>
  <path fill-rule="evenodd" clip-rule="evenodd" d="M10.4291 21.7691L13.8651 21.7183C15.2684 21.7183 16.5459 21.2234 17.5408 20.4013C18.822 19.3426 19.6333 17.7396 19.6333 15.9332V15.5272C19.6333 12.0136 19.6333 8.58648 19.6333 4.92541C18.2387 4.92541 16.7656 4.89138 15.3512 4.9713L14.0275 5.08541C12.7321 5.24288 11.4218 5.5451 10.4289 6.11806L10.4291 21.7691Z" fill="#4A9E4B"/>
  <path fill-rule="evenodd" clip-rule="evenodd" d="M10.4291 21.7692H13.8186C15.2408 21.7692 16.5262 21.2538 17.5408 20.4015C16.3688 17.6781 13.5717 15.7626 10.4289 15.7205L10.4291 21.7692Z" fill="#5FB74E"/>
  <path fill-rule="evenodd" clip-rule="evenodd" d="M15.3512 4.4201C15.0982 1.93559 12.9988 0 10.4499 0C7.90208 0 5.80361 1.919 5.51476 4.38912L6.83812 4.49003C7.07194 2.70614 8.59255 1.32674 10.4448 1.32674C12.2963 1.32674 13.8299 2.7295 14.0273 4.53405L15.3512 4.4201V4.4201Z" fill="#4D4C4B"/>
  <path fill-rule="evenodd" clip-rule="evenodd" d="M12.5816 16.4958C12.0049 17.1055 11.4291 17.7155 10.8525 18.3262L10.4287 18.7756L10.0053 18.3262C9.42878 17.7167 8.85278 17.1055 8.27644 16.4958L7.97794 16.1788L8.19584 15.8026C8.65841 15.0053 9.52309 14.5764 10.4286 14.5764C11.3351 14.5764 12.1991 15.0053 12.6618 15.8026L12.8802 16.1788L12.5816 16.4958V16.4958Z" fill="#4D4C4B"/>
  <path fill-rule="evenodd" clip-rule="evenodd" d="M12.1571 16.0957C11.5818 16.706 11.0046 17.3156 10.4286 17.9261C9.85275 17.3156 9.27623 16.706 8.69989 16.0957C9.06391 15.4682 9.74726 15.1582 10.4286 15.1592C11.1102 15.1582 11.7934 15.4682 12.1571 16.0957V16.0957Z" fill="#FDF8B4"/>
  <path fill-rule="evenodd" clip-rule="evenodd" d="M12.1571 16.0957C11.5818 16.706 11.0046 17.3156 10.4286 17.9261L10.4288 15.1592C11.1102 15.1582 11.7934 15.4682 12.1571 16.0957V16.0957Z" fill="#FCD066"/>
  <path fill-rule="evenodd" clip-rule="evenodd" d="M6.10923 7.22119C8.69143 7.22119 10.7855 9.31662 10.7855 11.8975C10.7855 14.4795 8.69143 16.5739 6.10923 16.5739C3.52686 16.5739 1.43363 14.4795 1.43363 11.8975C1.43363 9.31662 3.52686 7.22119 6.10923 7.22119V7.22119Z" fill="#4D4C4B"/>
  <path fill-rule="evenodd" clip-rule="evenodd" d="M6.10922 8.01685C8.25239 8.01685 9.99023 9.75502 9.99023 11.8975C9.99023 14.0403 8.25239 15.7783 6.10922 15.7783C3.96554 15.7783 2.22855 14.0403 2.22855 11.8975C2.22855 9.75502 3.96554 8.01685 6.10922 8.01685V8.01685Z" fill="#EEEFEE"/>
  <path fill-rule="evenodd" clip-rule="evenodd" d="M6.10922 8.01685C7.87787 8.01685 9.37054 9.20102 9.83819 10.8192C9.37054 12.4368 7.87787 13.621 6.10922 13.621C4.3399 13.621 2.84875 12.4368 2.38128 10.8192C2.84875 9.20102 4.3399 8.01685 6.10922 8.01685Z" fill="#FEFEFE"/>
  <path fill-rule="evenodd" clip-rule="evenodd" d="M14.7483 7.22119C17.331 7.22119 19.4242 9.31662 19.4242 11.8975C19.4242 14.4795 17.331 16.5739 14.7483 16.5739C12.1661 16.5739 10.0718 14.4805 10.0718 11.8975C10.0718 9.31662 12.1661 7.22119 14.7483 7.22119V7.22119Z" fill="#4D4C4B"/>
  <path fill-rule="evenodd" clip-rule="evenodd" d="M14.7483 8.01685C16.8914 8.01685 18.6293 9.75502 18.6293 11.8975C18.6295 14.0403 16.8914 15.7783 14.7483 15.7783C12.6053 15.7783 10.868 14.0403 10.868 11.8975C10.868 9.75502 12.6053 8.01685 14.7483 8.01685V8.01685Z" fill="#EEEFEE"/>
  <path fill-rule="evenodd" clip-rule="evenodd" d="M14.7483 8.01685C16.5166 8.01685 18.0096 9.20102 18.4764 10.8192C18.0096 12.4368 16.5166 13.621 14.7483 13.621C12.9791 13.621 11.487 12.4368 11.0193 10.8192C11.487 9.20102 12.9791 8.01685 14.7483 8.01685Z" fill="#FEFEFE"/>
  <path fill-rule="evenodd" clip-rule="evenodd" d="M6.59701 9.48438C7.98098 9.48438 9.10387 10.6064 9.10387 11.9892C9.10387 13.374 7.98098 14.4961 6.59701 14.4961C5.21203 14.4961 4.09032 13.374 4.09032 11.9892C4.09032 11.5278 4.21579 11.0957 4.43369 10.7241C4.61266 11.1667 5.04559 11.4772 5.55302 11.4772C6.21944 11.4772 6.76057 10.9381 6.76057 10.2712C6.76057 9.97115 6.65102 9.6972 6.4707 9.48708C6.51235 9.48438 6.55519 9.48438 6.59701 9.48438Z" fill="#4D4C4B"/>
  <path fill-rule="evenodd" clip-rule="evenodd" d="M14.2598 9.48438C15.6451 9.48438 16.7672 10.6064 16.7672 11.9892C16.7672 13.374 15.6451 14.4961 14.2598 14.4961C12.8762 14.4961 11.7541 13.374 11.7541 11.9892C11.7541 11.5278 11.8789 11.0957 12.0963 10.7241C12.2761 11.1667 12.7097 11.4772 13.2167 11.4772C13.8833 11.4772 14.4235 10.9381 14.4235 10.2712C14.4235 9.97115 14.3152 9.6972 14.1343 9.48708C14.1765 9.48438 14.2178 9.48438 14.2598 9.48438V9.48438Z" fill="#4D4C4B"/>
</svg>
