<svg width="20" height="20" viewBox="0 0 20 20" fill="none"
  xmlns="http://www.w3.org/2000/svg">
  <path fill-rule="evenodd" clip-rule="evenodd" d="M8.51454 10.8186L6.2417 1.46041C6.1789 1.20439 6.06395 0.964084 5.9041 0.75449C5.7442 0.544895 5.54285 0.370521 5.31255 0.242259C5.08225 0.113997 4.82796 0.0346038 4.5656 0.00903826C4.30323 -0.0165273 4.03841 0.0122845 3.78768 0.093674L1.32811 0.893239C1.07717 0.974274 0.845644 1.1062 0.648005 1.28078C0.450364 1.45536 0.29086 1.66883 0.179465 1.90785C0.0680705 2.14687 0.00717895 2.40629 0.000597317 2.66991C-0.00598434 2.93353 0.0418854 3.19568 0.141214 3.43996L3.80705 12.3472C3.99012 12.7953 4.33576 13.1576 4.7747 13.3615C5.21365 13.5655 5.71345 13.596 6.17395 13.447L7.24599 13.0984C7.70629 12.9488 8.09294 12.6307 8.32824 12.2078C8.56354 11.7849 8.63009 11.2886 8.51454 10.8186ZM8.85619 19.8726C8.36204 20.0323 7.83159 20.0421 7.33189 19.9006C6.83215 19.7591 6.38555 19.4728 6.04845 19.0777C5.71135 18.6826 5.4988 18.1965 5.43775 17.6808C5.37665 17.165 5.46975 16.6427 5.7052 16.1798C5.9407 15.7169 6.3081 15.3342 6.76095 15.0799C7.21374 14.8256 7.73179 14.7112 8.24964 14.7511C8.76744 14.7909 9.26184 14.9833 9.67044 15.304C10.079 15.6246 10.3834 16.0591 10.5452 16.5526C10.6531 16.8814 10.6949 17.2284 10.6684 17.5734C10.6418 17.9185 10.5473 18.255 10.3904 18.5634C10.2335 18.8719 10.0171 19.1464 9.75389 19.371C9.49059 19.5957 9.18554 19.7661 8.85619 19.8726ZM14.3162 17.4697C17.6888 16.3741 20.4112 12.4856 19.0569 8.31619C17.7012 4.14961 13.2137 2.60166 9.84114 3.69726C9.46254 3.81998 9.14449 4.08155 8.95094 4.42932C8.75744 4.7771 8.70284 5.18525 8.79809 5.5717L9.13839 6.973C9.19039 7.18335 9.28509 7.3808 9.41664 7.55294C9.54824 7.72509 9.71384 7.86834 9.90319 7.97374C10.0925 8.07909 10.3015 8.14434 10.5172 8.16544C10.7328 8.18654 10.9505 8.16299 11.1567 8.09624L11.295 8.05199C11.6287 7.93339 11.9828 7.88284 12.3363 7.90339C12.6899 7.92394 13.0357 8.01509 13.3535 8.17154C13.6712 8.32799 13.9543 8.54649 14.1862 8.81419C14.418 9.08189 14.5939 9.39334 14.7034 9.73014C14.8128 10.0669 14.8537 10.4223 14.8235 10.7751C14.7934 11.128 14.6928 11.4712 14.5277 11.7846C14.3627 12.0979 14.1365 12.375 13.8626 12.5995C13.5887 12.8239 13.2725 12.9912 12.9329 13.0915L12.7945 13.1357C12.5888 13.203 12.3991 13.312 12.2373 13.4559C12.0755 13.5998 11.9451 13.7755 11.8543 13.972C11.7634 14.1685 11.714 14.3817 11.7092 14.5981C11.7044 14.8146 11.7442 15.0297 11.8262 15.2301L12.3699 16.5664C12.5202 16.935 12.8044 17.233 13.1655 17.4006C13.5266 17.5682 13.9377 17.5929 14.3162 17.4697Z" fill="#E31E52"/>
</svg>
