<svg width="20" height="17" viewBox="0 0 20 17" fill="none"
  xmlns="http://www.w3.org/2000/svg">
  <path d="M10.0021 16.2414C9.86003 16.2424 9.72017 16.2062 9.59663 16.1361C8.53853 15.5239 0.701515 10.61 0.405632 10.4601C0.180356 10.3549 0.026587 10.1396 0.000194439 9.89247V3.00018C-0.00567057 2.74295 0.12148 2.50083 0.336606 2.35962L0.393451 2.32721C1.15154 1.85688 3.68951 0.308139 4.09089 0.0851931C4.183 0.0305281 4.28789 0.00112789 4.39497 0C4.49543 0.00112789 4.59408 0.026167 4.68288 0.0730119C4.68288 0.0730119 8.23437 2.38796 8.77771 2.59474C9.15886 2.76987 9.57453 2.85716 9.99395 2.85017C10.4692 2.86017 10.9389 2.7455 11.3562 2.51774C11.8873 2.23795 15.2807 0.0851931 15.3172 0.0851931C15.4028 0.0334606 15.5011 0.00684252 15.6011 0.00812079C15.7082 0.00864713 15.8132 0.0380474 15.9051 0.0933139C16.3673 0.348743 19.5135 2.2745 19.6472 2.35962C19.8685 2.49308 20.0026 2.7337 20 2.99206V9.88435C19.9751 10.1321 19.8208 10.3481 19.5945 10.452C19.2986 10.6141 11.4859 15.5279 10.4075 16.128C10.2847 16.2009 10.1449 16.24 10.0021 16.2415V16.2414V16.2414Z" fill="url(#paint0_linear_1_11)"/>
  <defs>
    <linearGradient id="paint0_linear_1_11" x1="0.00117194" y1="8.19824" x2="19.8888" y2="8.04417" gradientUnits="userSpaceOnUse">
      <stop stop-color="#FFB800"/>
      <stop offset="0.329412" stop-color="#F28000"/>
      <stop offset="0.560784" stop-color="#F73B72"/>
      <stop offset="0.780392" stop-color="#FB1CBD"/>
      <stop offset="0.929412" stop-color="#FD08ED"/>
      <stop offset="1" stop-color="#FF00FF"/>
    </linearGradient>
  </defs>
</svg>
