<svg width="21" height="21" viewBox="0 0 21 21" fill="none"
  xmlns="http://www.w3.org/2000/svg">
  <path d="M17.5538 20.3533H3.40597C1.79003 20.3533 0.47998 19.0433 0.47998 17.4273V3.52609C0.47998 1.91015 1.79003 0.600098 3.40597 0.600098H17.554C19.1699 0.600098 20.48 1.91015 20.48 3.52609V17.4273C20.48 19.0434 19.1699 20.3533 17.5538 20.3533Z" fill="url(#paint0_linear_3_51)"/>
  <path fill-rule="evenodd" clip-rule="evenodd" d="M17.3523 6.63369C17.3523 6.46982 17.2207 6.33693 17.0579 6.33693H13.8677C13.7897 4.25446 12.303 2.59375 10.4802 2.59375C8.65744 2.59375 7.1708 4.25446 7.09272 6.33693H3.89827C3.73798 6.33998 3.60868 6.47161 3.60868 6.63369C3.60868 6.64139 3.60922 6.64927 3.60993 6.65697H3.6076L4.06285 16.6956C4.06285 16.7235 4.06411 16.7516 4.06644 16.7801C4.06644 16.7867 4.06697 16.7926 4.06769 16.7991L4.06894 16.8206L4.0702 16.8211C4.13933 17.5201 4.64633 18.0826 5.3353 18.1088L5.33709 18.11H15.5211L15.5216 18.1095C16.223 18.0905 16.7914 17.5201 16.851 16.8129L16.8516 16.8123L16.8521 16.8028C16.8526 16.7957 16.8534 16.7885 16.8534 16.7808C16.8546 16.7629 16.8557 16.745 16.8557 16.7278L17.3527 6.64927H17.3521C17.3523 6.64372 17.3523 6.63888 17.3523 6.63369ZM10.4802 3.49941C11.8078 3.49941 12.8904 4.75968 12.9411 6.33693H8.01934C8.06984 4.75968 9.15209 3.49941 10.4802 3.49941ZM12.999 14.2066C12.9091 14.9514 12.4574 15.5485 11.7577 15.847C11.368 16.0139 10.8454 16.1038 10.4313 16.0752C9.78535 16.0508 9.17877 15.8934 8.61983 15.6063C8.4196 15.5039 8.12231 15.2988 7.89343 15.107C7.83559 15.0587 7.82842 15.0279 7.86657 14.9729C7.88735 14.9419 7.92549 14.8858 8.0102 14.7619C8.13234 14.5826 8.14721 14.5604 8.16153 14.5391C8.20022 14.4795 8.26397 14.4741 8.32666 14.5235C8.33328 14.5284 8.33328 14.5284 8.33865 14.5325C8.34886 14.5402 8.34886 14.5402 8.37322 14.5594C8.39758 14.5783 8.4119 14.5898 8.41799 14.5939C9.02099 15.0664 9.72357 15.3388 10.4326 15.3662C11.4194 15.3524 12.1289 14.9091 12.2559 14.228C12.396 13.4784 11.8073 12.8308 10.6561 12.4697C10.2956 12.3571 9.38562 11.9925 9.21763 11.8941C8.42981 11.4317 8.06106 10.8264 8.11354 10.078C8.19395 9.04121 9.15639 8.26772 10.3731 8.26234C10.9172 8.26181 11.46 8.37445 11.9814 8.5942C12.166 8.67228 12.4955 8.85155 12.6094 8.93626C12.675 8.98462 12.6881 9.04049 12.6506 9.10138C12.6291 9.13649 12.5946 9.192 12.5219 9.30823L12.5206 9.30949C12.4246 9.46207 12.4218 9.46673 12.3997 9.50255C12.3616 9.56093 12.3163 9.5663 12.2479 9.52279C11.6894 9.14795 11.071 8.95919 10.3905 8.9454C9.54376 8.96205 8.90924 9.46619 8.86751 10.1532C8.85623 10.7736 9.32151 11.2258 10.3262 11.5714C12.3655 12.2263 13.1462 12.9945 12.999 14.2066Z" fill="white"/>
  <defs>
    <linearGradient id="paint0_linear_3_51" x1="0.479886" y1="10.4767" x2="20.4799" y2="10.4767" gradientUnits="userSpaceOnUse">
      <stop stop-color="#FF6633"/>
      <stop offset="0.3304" stop-color="#FD5D32"/>
      <stop offset="0.8782" stop-color="#F7432E"/>
      <stop offset="0.9944" stop-color="#F53D2D"/>
    </linearGradient>
  </defs>
</svg>
